<svg width="265" height="265" viewBox="0 0 265 265" fill="none" xmlns="http://www.w3.org/2000/svg"><mask id="a" style="mask-type:alpha" maskUnits="userSpaceOnUse" x="0" y="0" width="265" height="265"><rect width="265" height="265" rx="66.25" fill="#fff"/></mask><g mask="url(#a)"><rect width="265" height="265" rx="66.25" fill="url(#b)"/><g filter="url(#c)"><circle cx="19" cy="209.5" r="41.9" fill="#fff"/></g><g filter="url(#d)"><circle cx="148.05" cy="238.55" r="70.95" fill="#fff"/></g><g filter="url(#e)"><circle cx="256" cy="180" r="37" fill="#fff"/></g><g filter="url(#f)"><circle cx="232.3" cy="229.1" r="56.6" fill="#fff"/></g><g filter="url(#g)"><circle cx="77.1" cy="235.2" r="55.4" fill="#fff"/></g><g filter="url(#h)"><circle cx="161.35" cy="300.05" r="70.95" fill="#fff"/></g><g filter="url(#i)"><path d="M97.938 134.328c-19.532 0-30.938-9.062-30.938-24.609 0-18.75 17.422-26.875 43.828-26.875h8.75v-6.64c0-6.095-5.078-10.313-13.516-10.313-8.593 0-14.218 4.375-14.765 10.703h-21.64C70.515 61.28 83.718 48.78 105.75 48.78 118.016 48.781 127 53 132 60.344c6.484-7.344 15.312-11.719 26.719-11.719 24.219 0 40.625 17.578 40.625 42.734v6.172h-58.672c.39 12.188 7.422 20.078 19.531 20.078 8.906 0 15.156-4.14 17.266-10.547h21.015c-3.046 16.407-18.984 27.813-38.984 27.813-13.203 0-24.062-5.859-30.156-14.922-7.032 10.938-19.141 14.375-31.406 14.375m21.64-36.797h-12.422c-11.406 0-18.125 4.219-18.125 11.25 0 6.328 5 9.531 12.735 9.531 11.093 0 17.812-6.562 17.812-15.468zm21.25-14.687h36.797c-1.25-10.313-8.047-16.719-18.437-16.719-10.313 0-17.11 6.406-18.36 16.719" fill="#fff"/></g></g><defs><filter id="c" x="-22.9" y="167.6" width="83.8" height="91.8" filterUnits="userSpaceOnUse" color-interpolation-filters="sRGB"><feFlood flood-opacity="0" result="BackgroundImageFix"/><feBlend in="SourceGraphic" in2="BackgroundImageFix" result="shape"/><feColorMatrix in="SourceAlpha" values="0 0 0 0 0 0 0 0 0 0 0 0 0 0 0 0 0 0 127 0" result="hardAlpha"/><feOffset dy="8"/><feGaussianBlur stdDeviation="10"/><feComposite in2="hardAlpha" operator="arithmetic" k2="-1" k3="1"/><feColorMatrix values="0 0 0 0 0 0 0 0 0 0 0 0 0 0 0 0 0 0 0.1 0"/><feBlend in2="shape" result="effect1_innerShadow_1_14"/></filter><filter id="d" x="77.1" y="167.6" width="141.9" height="149.9" filterUnits="userSpaceOnUse" color-interpolation-filters="sRGB"><feFlood flood-opacity="0" result="BackgroundImageFix"/><feBlend in="SourceGraphic" in2="BackgroundImageFix" result="shape"/><feColorMatrix in="SourceAlpha" values="0 0 0 0 0 0 0 0 0 0 0 0 0 0 0 0 0 0 127 0" result="hardAlpha"/><feOffset dy="8"/><feGaussianBlur stdDeviation="10"/><feComposite in2="hardAlpha" operator="arithmetic" k2="-1" k3="1"/><feColorMatrix values="0 0 0 0 0 0 0 0 0 0 0 0 0 0 0 0 0 0 0.1 0"/><feBlend in2="shape" result="effect1_innerShadow_1_14"/></filter><filter id="e" x="219" y="143" width="74" height="82" filterUnits="userSpaceOnUse" color-interpolation-filters="sRGB"><feFlood flood-opacity="0" result="BackgroundImageFix"/><feBlend in="SourceGraphic" in2="BackgroundImageFix" result="shape"/><feColorMatrix in="SourceAlpha" values="0 0 0 0 0 0 0 0 0 0 0 0 0 0 0 0 0 0 127 0" result="hardAlpha"/><feOffset dy="8"/><feGaussianBlur stdDeviation="10"/><feComposite in2="hardAlpha" operator="arithmetic" k2="-1" k3="1"/><feColorMatrix values="0 0 0 0 0 0 0 0 0 0 0 0 0 0 0 0 0 0 0.1 0"/><feBlend in2="shape" result="effect1_innerShadow_1_14"/></filter><filter id="f" x="175.7" y="172.5" width="113.2" height="121.2" filterUnits="userSpaceOnUse" color-interpolation-filters="sRGB"><feFlood flood-opacity="0" result="BackgroundImageFix"/><feBlend in="SourceGraphic" in2="BackgroundImageFix" result="shape"/><feColorMatrix in="SourceAlpha" values="0 0 0 0 0 0 0 0 0 0 0 0 0 0 0 0 0 0 127 0" result="hardAlpha"/><feOffset dy="8"/><feGaussianBlur stdDeviation="10"/><feComposite in2="hardAlpha" operator="arithmetic" k2="-1" k3="1"/><feColorMatrix values="0 0 0 0 0 0 0 0 0 0 0 0 0 0 0 0 0 0 0.1 0"/><feBlend in2="shape" result="effect1_innerShadow_1_14"/></filter><filter id="g" x="21.7" y="179.8" width="110.8" height="118.8" filterUnits="userSpaceOnUse" color-interpolation-filters="sRGB"><feFlood flood-opacity="0" result="BackgroundImageFix"/><feBlend in="SourceGraphic" in2="BackgroundImageFix" result="shape"/><feColorMatrix in="SourceAlpha" values="0 0 0 0 0 0 0 0 0 0 0 0 0 0 0 0 0 0 127 0" result="hardAlpha"/><feOffset dy="8"/><feGaussianBlur stdDeviation="10"/><feComposite in2="hardAlpha" operator="arithmetic" k2="-1" k3="1"/><feColorMatrix values="0 0 0 0 0 0 0 0 0 0 0 0 0 0 0 0 0 0 0.1 0"/><feBlend in2="shape" result="effect1_innerShadow_1_14"/></filter><filter id="h" x="90.4" y="229.1" width="141.9" height="149.9" filterUnits="userSpaceOnUse" color-interpolation-filters="sRGB"><feFlood flood-opacity="0" result="BackgroundImageFix"/><feBlend in="SourceGraphic" in2="BackgroundImageFix" result="shape"/><feColorMatrix in="SourceAlpha" values="0 0 0 0 0 0 0 0 0 0 0 0 0 0 0 0 0 0 127 0" result="hardAlpha"/><feOffset dy="8"/><feGaussianBlur stdDeviation="10"/><feComposite in2="hardAlpha" operator="arithmetic" k2="-1" k3="1"/><feColorMatrix values="0 0 0 0 0 0 0 0 0 0 0 0 0 0 0 0 0 0 0.1 0"/><feBlend in2="shape" result="effect1_innerShadow_1_14"/></filter><filter id="i" x="65" y="44.625" width="138.344" height="92.25" filterUnits="userSpaceOnUse" color-interpolation-filters="sRGB"><feFlood flood-opacity="0" result="BackgroundImageFix"/><feBlend in="SourceGraphic" in2="BackgroundImageFix" result="shape"/><feColorMatrix in="SourceAlpha" values="0 0 0 0 0 0 0 0 0 0 0 0 0 0 0 0 0 0 127 0" result="hardAlpha"/><feOffset dx="4" dy="-4"/><feGaussianBlur stdDeviation="3.5"/><feComposite in2="hardAlpha" operator="arithmetic" k2="-1" k3="1"/><feColorMatrix values="0 0 0 0 0.956863 0 0 0 0 0.717647 0 0 0 0 0.423529 0 0 0 0.25 0"/><feBlend in2="shape" result="effect1_innerShadow_1_14"/><feColorMatrix in="SourceAlpha" values="0 0 0 0 0 0 0 0 0 0 0 0 0 0 0 0 0 0 127 0" result="hardAlpha"/><feOffset dx="-2" dy="2"/><feGaussianBlur stdDeviation="6"/><feComposite in2="hardAlpha" operator="arithmetic" k2="-1" k3="1"/><feColorMatrix values="0 0 0 0 0.501961 0 0 0 0 0.764706 0 0 0 0 0.878431 0 0 0 0.42 0"/><feBlend in2="effect1_innerShadow_1_14" result="effect2_innerShadow_1_14"/></filter><radialGradient id="b" cx="0" cy="0" r="1" gradientUnits="userSpaceOnUse" gradientTransform="rotate(-37.918 285.851 8.697)scale(235.139 264.202)"><stop offset=".046" stop-color="#f4b76c"/><stop offset="1" stop-color="#80c3e0"/></radialGradient></defs></svg>